# xmcd CD database file
#
# Track frame offsets:
#	150
#	13470
#	28300
#	43905
#	63122
#	77915
#	93090
#	110155
#	125397
#	139582
#
# Disc length: 2073 seconds
#
# Revision: 5
# Processed by: cddbd v1.5.2PL0 Copyright (c) Steve Scherf et al.
# Submitted via: CDex 1.51
#
DISCID=8908170a
DTITLE=Black Hawk - Black Hawk 2 - Strong Enough
DYEAR=1995
DGENRE=Country
TTITLE0=Big Guitar
TTITLE1=Like There Ain't No Yesterday
TTITLE2=Cast Iron Heart
TTITLE3=I'm Not Strog Enough To Say No
TTITLE4=Almost A Memory Now
TTITLE5=King Of The World
TTITLE6=Bad Love Gone Good
TTITLE7=Any Man With A Heart Beat
TTITLE8=A Kiss Worth A Thousand Words
TTITLE9=Hook, Line And Sinker
EXTD=YEAR: 1995
EXTT0=
EXTT1=
EXTT2=
EXTT3=
EXTT4=
EXTT5=
EXTT6=
EXTT7=
EXTT8=
EXTT9=
PLAYORDER=
